<svg width="10" height="10" viewBox="0 0 10 10" fill="none" xmlns="http://www.w3.org/2000/svg">
<path fill-rule="evenodd" clip-rule="evenodd" d="M1.53034 0.469669C1.23744 0.176777 0.762566 0.176777 0.469671 0.469669C0.176776 0.76256 0.176776 1.23743 0.469671 1.53032L3.93934 4.99995L0.469863 8.46938C0.176967 8.76227 0.176968 9.23714 0.469863 9.53004C0.762758 9.82293 1.23763 9.82293 1.53053 9.53004L5 6.0606L8.46948 9.53004C8.76238 9.82293 9.23725 9.82293 9.53015 9.53004C9.82304 9.23714 9.82304 8.76227 9.53015 8.46938L6.06067 4.99995L9.53034 1.53032C9.82323 1.23743 9.82323 0.76256 9.53034 0.469669C9.23744 0.176777 8.76257 0.176777 8.46967 0.469669L5 3.93929L1.53034 0.469669Z" fill="#1E1E1E"/>
</svg>
